<svg width="1024" height="224" viewBox="0 0 1024 224" fill="none" xmlns="http://www.w3.org/2000/svg">
<mask id="path-1-outside-1_32_32" maskUnits="userSpaceOnUse" x="-0.00522614" y="-0.0649414" width="1024" height="224" fill="black">
<rect fill="white" x="-0.00522614" y="-0.0649414" width="1024" height="224"/>
<path d="M2.14952 217.935V5.78655H93.9795C112.972 5.78655 129.338 8.91827 143.077 15.1817C156.816 21.2431 167.423 30.0321 174.899 41.5487C182.375 53.0654 186.113 66.8045 186.113 82.7662C186.113 98.5258 182.375 112.164 174.899 123.681C167.423 135.197 156.816 144.087 143.077 150.351C129.338 156.412 112.972 159.443 93.9795 159.443H29.4258L51.2467 137.319V217.935H2.14952ZM51.2467 142.774L29.4258 119.438H91.2519C106.405 119.438 117.72 116.205 125.196 109.739C132.671 103.274 136.409 94.2828 136.409 82.7662C136.409 71.0475 132.671 61.9554 125.196 55.4899C117.72 49.0244 106.405 45.7917 91.2519 45.7917H29.4258L51.2467 22.4554V142.774ZM221.164 217.935V5.78655H270.262V177.93H376.639V217.935H221.164ZM377.373 217.935L471.931 5.78655H520.422L615.282 217.935H563.761L486.175 30.6382H505.571L427.682 217.935H377.373ZM424.652 172.475L437.684 135.197H546.789L560.124 172.475H424.652ZM735.861 221.572C719.496 221.572 704.241 218.945 690.098 213.692C676.157 208.237 664.034 200.559 653.73 190.659C643.425 180.759 635.343 169.141 629.484 155.806C623.827 142.471 620.998 127.822 620.998 111.861C620.998 95.8992 623.827 81.2508 629.484 67.9158C635.343 54.5807 643.425 42.9631 653.73 33.0628C664.236 23.1625 676.46 15.5858 690.401 10.3326C704.342 4.87735 719.597 2.14973 736.164 2.14973C754.551 2.14973 771.118 5.38247 785.868 11.8479C800.819 18.1114 813.346 27.4055 823.448 39.7303L791.929 68.825C784.655 60.5411 776.574 54.3787 767.684 50.3377C758.794 46.0948 749.095 43.9733 738.589 43.9733C728.689 43.9733 719.597 45.5897 711.313 48.8224C703.029 52.0551 695.856 56.7022 689.795 62.7636C683.733 68.825 678.985 75.9976 675.551 84.2815C672.318 92.5654 670.701 101.758 670.701 111.861C670.701 121.963 672.318 131.156 675.551 139.44C678.985 147.724 683.733 154.897 689.795 160.958C695.856 167.019 703.029 171.666 711.313 174.899C719.597 178.132 728.689 179.748 738.589 179.748C749.095 179.748 758.794 177.728 767.684 173.687C776.574 169.444 784.655 163.08 791.929 154.594L823.448 183.688C813.346 196.013 800.819 205.408 785.868 211.874C771.118 218.339 754.45 221.572 735.861 221.572ZM901.761 91.2521H1003.9V129.439H901.761V91.2521ZM905.398 178.536H1020.87V217.935H856.604V5.78655H1016.93V45.1856H905.398V178.536Z"/>
</mask>
<path d="M2.14952 217.935H-1.90735e-06V220.085H2.14952V217.935ZM2.14952 5.78655V3.63702H-1.90735e-06V5.78655H2.14952ZM143.077 15.1817L142.185 17.1376L142.197 17.143L142.209 17.1483L143.077 15.1817ZM174.899 41.5487L173.096 42.7191L174.899 41.5487ZM143.077 150.351L143.944 152.317L143.956 152.312L143.968 152.306L143.077 150.351ZM29.4258 159.443L27.8954 157.933L24.2865 161.592H29.4258V159.443ZM51.2467 137.319H53.3963V132.078L49.7164 135.809L51.2467 137.319ZM51.2467 217.935V220.085H53.3963V217.935H51.2467ZM51.2467 142.774L49.6767 144.242L53.3963 148.22V142.774H51.2467ZM29.4258 119.438V117.288H24.473L27.8557 120.906L29.4258 119.438ZM29.4258 45.7917L27.8557 44.3236L24.473 47.9412H29.4258V45.7917ZM51.2467 22.4554H53.3963V17.0094L49.6767 20.9873L51.2467 22.4554ZM2.14952 217.935H4.29905V5.78655H2.14952H-1.90735e-06V217.935H2.14952ZM2.14952 5.78655V7.93608H93.9795V5.78655V3.63702H2.14952V5.78655ZM93.9795 5.78655V7.93608C112.741 7.93608 128.788 11.0302 142.185 17.1376L143.077 15.1817L143.968 13.2258C129.887 6.80634 113.203 3.63702 93.9795 3.63702V5.78655ZM143.077 15.1817L142.209 17.1483C155.603 23.0574 165.869 31.5859 173.096 42.7191L174.899 41.5487L176.702 40.3784C168.977 28.4783 158.029 19.4288 143.944 13.2151L143.077 15.1817ZM174.899 41.5487L173.096 42.7191C180.311 53.8336 183.963 67.1509 183.963 82.7662H186.113H188.262C188.262 66.4581 184.439 52.2971 176.702 40.3784L174.899 41.5487ZM186.113 82.7662H183.963C183.963 98.1733 180.314 111.391 173.096 122.51L174.899 123.681L176.702 124.851C184.436 112.936 188.262 98.8782 188.262 82.7662H186.113ZM174.899 123.681L173.096 122.51C165.865 133.65 155.59 142.284 142.185 148.395L143.077 150.351L143.968 152.306C158.041 145.891 168.982 136.745 176.702 124.851L174.899 123.681ZM143.077 150.351L142.209 148.384C128.805 154.297 112.749 157.293 93.9795 157.293V159.443V161.592C113.194 161.592 129.87 158.527 143.944 152.317L143.077 150.351ZM93.9795 159.443V157.293H29.4258V159.443V161.592H93.9795V159.443ZM29.4258 159.443L30.9562 160.952L52.7771 138.828L51.2467 137.319L49.7164 135.809L27.8954 157.933L29.4258 159.443ZM51.2467 137.319H49.0972V217.935H51.2467H53.3963V137.319H51.2467ZM51.2467 217.935V215.786H2.14952V217.935V220.085H51.2467V217.935ZM51.2467 142.774L52.8168 141.306L30.9958 117.969L29.4258 119.438L27.8557 120.906L49.6767 144.242L51.2467 142.774ZM29.4258 119.438V121.587H91.2519V119.438V117.288H29.4258V119.438ZM91.2519 119.438V121.587C106.658 121.587 118.574 118.308 126.602 111.365L125.196 109.739L123.79 108.113C116.866 114.101 106.153 117.288 91.2519 117.288V119.438ZM125.196 109.739L126.602 111.365C134.63 104.422 138.559 94.7929 138.559 82.7662H136.409H134.26C134.26 93.7727 130.713 102.125 123.79 108.113L125.196 109.739ZM136.409 82.7662H138.559C138.559 70.5508 134.638 60.8145 126.602 53.8641L125.196 55.4899L123.79 57.1158C130.705 63.0963 134.26 71.5442 134.26 82.7662H136.409ZM125.196 55.4899L126.602 53.8641C118.574 46.9209 106.658 43.6422 91.2519 43.6422V45.7917V47.9412C106.153 47.9412 116.866 51.128 123.79 57.1158L125.196 55.4899ZM91.2519 45.7917V43.6422H29.4258V45.7917V47.9412H91.2519V45.7917ZM29.4258 45.7917L30.9958 47.2598L52.8168 23.9235L51.2467 22.4554L49.6767 20.9873L27.8557 44.3236L29.4258 45.7917ZM51.2467 22.4554H49.0972V142.774H51.2467H53.3963V22.4554H51.2467ZM221.164 217.935H219.015V220.085H221.164V217.935ZM221.164 5.78655V3.63702H219.015V5.78655H221.164ZM270.262 5.78655H272.411V3.63702H270.262V5.78655ZM270.262 177.93H268.112V180.079H270.262V177.93ZM376.639 177.93H378.789V175.78H376.639V177.93ZM376.639 217.935V220.085H378.789V217.935H376.639ZM221.164 217.935H223.314V5.78655H221.164H219.015V217.935H221.164ZM221.164 5.78655V7.93608H270.262V5.78655V3.63702H221.164V5.78655ZM270.262 5.78655H268.112V177.93H270.262H272.411V5.78655H270.262ZM270.262 177.93V180.079H376.639V177.93V175.78H270.262V177.93ZM376.639 177.93H374.489V217.935H376.639H378.789V177.93H376.639ZM376.639 217.935V215.786H221.164V217.935V220.085H376.639V217.935ZM377.373 217.935L375.41 217.06L374.062 220.085H377.373V217.935ZM471.931 5.78655V3.63702H470.535L469.967 4.91147L471.931 5.78655ZM520.422 5.78655L522.384 4.90913L521.815 3.63702H520.422V5.78655ZM615.282 217.935V220.085H618.598L617.245 217.058L615.282 217.935ZM563.761 217.935L561.775 218.758L562.324 220.085H563.761V217.935ZM486.175 30.6382V28.4887H482.958L484.189 31.4609L486.175 30.6382ZM505.571 30.6382L507.556 31.4636L508.793 28.4887H505.571V30.6382ZM427.682 217.935V220.085H429.117L429.667 218.76L427.682 217.935ZM424.652 172.475L422.623 171.765L421.623 174.624H424.652V172.475ZM437.684 135.197V133.048H436.158L435.655 134.488L437.684 135.197ZM546.789 135.197L548.813 134.473L548.303 133.048H546.789V135.197ZM560.124 172.475V174.624H563.176L562.148 171.751L560.124 172.475ZM377.373 217.935L379.336 218.81L473.894 6.66164L471.931 5.78655L469.967 4.91147L375.41 217.06L377.373 217.935ZM471.931 5.78655V7.93608H520.422V5.78655V3.63702H471.931V5.78655ZM520.422 5.78655L518.459 6.66398L613.32 218.812L615.282 217.935L617.245 217.058L522.384 4.90913L520.422 5.78655ZM615.282 217.935V215.786H563.761V217.935V220.085H615.282V217.935ZM563.761 217.935L565.746 217.112L488.161 29.8156L486.175 30.6382L484.189 31.4609L561.775 218.758L563.761 217.935ZM486.175 30.6382V32.7878H505.571V30.6382V28.4887H486.175V30.6382ZM505.571 30.6382L503.587 29.8129L425.698 217.11L427.682 217.935L429.667 218.76L507.556 31.4636L505.571 30.6382ZM427.682 217.935V215.786H377.373V217.935V220.085H427.682V217.935ZM424.652 172.475L426.681 173.184L439.713 135.907L437.684 135.197L435.655 134.488L422.623 171.765L424.652 172.475ZM437.684 135.197V137.347H546.789V135.197V133.048H437.684V135.197ZM546.789 135.197L544.765 135.921L558.1 173.199L560.124 172.475L562.148 171.751L548.813 134.473L546.789 135.197ZM560.124 172.475V170.325H424.652V172.475V174.624H560.124V172.475ZM690.098 213.692L689.315 215.694L689.332 215.701L689.349 215.707L690.098 213.692ZM653.73 190.659L652.24 192.209L653.73 190.659ZM629.484 155.806L627.505 156.645L627.511 156.658L627.516 156.671L629.484 155.806ZM629.484 67.9158L627.516 67.0511L627.511 67.0636L627.505 67.0763L629.484 67.9158ZM653.73 33.0628L652.255 31.4984L652.248 31.5055L652.24 31.5128L653.73 33.0628ZM690.401 10.3326L691.159 12.344L691.172 12.3393L691.184 12.3343L690.401 10.3326ZM785.868 11.8479L785.005 13.8166L785.021 13.8237L785.037 13.8305L785.868 11.8479ZM823.448 39.7303L824.906 41.3098L826.396 39.9351L825.111 38.3677L823.448 39.7303ZM791.929 68.825L790.314 70.2432L791.768 71.8991L793.387 70.4044L791.929 68.825ZM767.684 50.3377L766.758 52.2776L766.776 52.2863L766.794 52.2946L767.684 50.3377ZM689.795 62.7636L691.315 64.2835L689.795 62.7636ZM675.551 84.2815L673.565 83.4582L673.556 83.479L673.548 83.5001L675.551 84.2815ZM675.551 139.44L673.548 140.222L673.556 140.243L673.565 140.263L675.551 139.44ZM689.795 160.958L688.275 162.478L689.795 160.958ZM767.684 173.687L768.573 175.644L768.591 175.635L768.609 175.627L767.684 173.687ZM791.929 154.594L793.387 153.014L791.748 151.501L790.297 153.195L791.929 154.594ZM823.448 183.688L825.111 185.051L826.396 183.483L824.906 182.109L823.448 183.688ZM785.868 211.874L785.015 209.901L785.005 209.905L785.868 211.874ZM735.861 221.572V219.422C719.729 219.422 704.73 216.834 690.846 211.677L690.098 213.692L689.349 215.707C703.752 221.057 719.262 223.721 735.861 223.721V221.572ZM690.098 213.692L690.881 211.69C677.19 206.333 665.31 198.804 655.219 189.109L653.73 190.659L652.24 192.209C662.758 202.314 675.123 210.141 689.315 215.694L690.098 213.692ZM653.73 190.659L655.219 189.109C645.121 179.407 637.2 168.024 631.452 154.941L629.484 155.806L627.516 156.671C633.486 170.258 641.729 182.11 652.24 192.209L653.73 190.659ZM629.484 155.806L631.463 154.966C625.929 141.923 623.148 127.564 623.148 111.861H620.998H618.849C618.849 128.081 621.724 143.019 627.505 156.645L629.484 155.806ZM620.998 111.861H623.148C623.148 96.1581 625.929 81.7989 631.463 68.7552L629.484 67.9158L627.505 67.0763C621.724 80.7028 618.849 95.6402 618.849 111.861H620.998ZM629.484 67.9158L631.452 68.7805C637.2 55.6979 645.121 44.3144 655.219 34.6128L653.73 33.0628L652.24 31.5128C641.729 41.6118 633.486 53.4635 627.516 67.0511L629.484 67.9158ZM653.73 33.0628L655.204 34.6272C665.497 24.9281 677.475 17.5003 691.159 12.344L690.401 10.3326L689.643 8.32112C675.445 13.6713 662.975 21.3969 652.255 31.4984L653.73 33.0628ZM690.401 10.3326L691.184 12.3343C704.85 6.98665 719.836 4.29926 736.164 4.29926V2.14973V0.000205994C719.357 0.000205994 703.834 2.76805 689.618 8.33086L690.401 10.3326ZM736.164 2.14973V4.29926C754.295 4.29926 770.563 7.48618 785.005 13.8166L785.868 11.8479L786.731 9.87926C771.673 3.27876 754.806 0.000205994 736.164 0.000205994V2.14973ZM785.868 11.8479L785.037 13.8305C799.671 19.9608 811.91 29.0444 821.786 41.093L823.448 39.7303L825.111 38.3677C814.782 25.7666 801.968 16.262 786.698 9.86536L785.868 11.8479ZM823.448 39.7303L821.99 38.1508L790.471 67.2455L791.929 68.825L793.387 70.4044L824.906 41.3098L823.448 39.7303ZM791.929 68.825L793.544 67.4067C786.096 58.9234 777.774 52.5632 768.573 48.3809L767.684 50.3377L766.794 52.2946C775.373 56.1941 783.215 62.1587 790.314 70.2432L791.929 68.825ZM767.684 50.3377L768.609 48.3978C759.411 44.0078 749.394 41.8238 738.589 41.8238V43.9733V46.1228C748.797 46.1228 758.176 48.1818 766.758 52.2776L767.684 50.3377ZM738.589 43.9733V41.8238C728.452 41.8238 719.091 43.4796 710.531 46.8199L711.313 48.8224L712.094 50.8248C720.102 47.6997 728.926 46.1228 738.589 46.1228V43.9733ZM711.313 48.8224L710.531 46.8199C701.981 50.1566 694.554 54.9642 688.275 61.2436L689.795 62.7636L691.315 64.2835C697.158 58.4402 704.077 53.9537 712.094 50.8248L711.313 48.8224ZM689.795 62.7636L688.275 61.2436C682.005 67.5136 677.103 74.926 673.565 83.4582L675.551 84.2815L677.536 85.1048C680.868 77.0692 685.462 70.1363 691.315 64.2835L689.795 62.7636ZM675.551 84.2815L673.548 83.5001C670.206 92.0646 668.552 101.527 668.552 111.861H670.701H672.851C672.851 101.99 674.43 93.0662 677.553 85.0629L675.551 84.2815ZM670.701 111.861H668.552C668.552 122.194 670.206 131.657 673.548 140.222L675.551 139.44L677.553 138.659C674.43 130.655 672.851 121.732 672.851 111.861H670.701ZM675.551 139.44L673.565 140.263C677.103 148.796 682.005 156.208 688.275 162.478L689.795 160.958L691.315 159.438C685.462 153.585 680.868 146.652 677.536 138.617L675.551 139.44ZM689.795 160.958L688.275 162.478C694.554 168.757 701.981 173.565 710.531 176.902L711.313 174.899L712.094 172.897C704.077 169.768 697.158 165.281 691.315 159.438L689.795 160.958ZM711.313 174.899L710.531 176.902C719.091 180.242 728.452 181.898 738.589 181.898V179.748V177.599C728.926 177.599 720.102 176.022 712.094 172.897L711.313 174.899ZM738.589 179.748V181.898C749.379 181.898 759.383 179.821 768.573 175.644L767.684 173.687L766.794 171.73C758.204 175.635 748.812 177.599 738.589 177.599V179.748ZM767.684 173.687L768.609 175.627C777.804 171.238 786.119 164.675 793.561 155.992L791.929 154.594L790.297 153.195C783.192 161.484 775.343 167.649 766.758 171.747L767.684 173.687ZM791.929 154.594L790.471 156.173L821.99 185.268L823.448 183.688L824.906 182.109L793.387 153.014L791.929 154.594ZM823.448 183.688L821.786 182.326C811.906 194.379 799.659 203.568 785.015 209.901L785.868 211.874L786.721 213.847C801.98 207.248 814.786 197.647 825.111 185.051L823.448 183.688ZM785.868 211.874L785.005 209.905C770.566 216.234 754.198 219.422 735.861 219.422V221.572V223.721C754.701 223.721 771.67 220.444 786.731 213.842L785.868 211.874ZM901.761 91.2521V89.1026H899.611V91.2521H901.761ZM1003.9 91.2521H1006.04V89.1026H1003.9V91.2521ZM1003.9 129.439V131.588H1006.04V129.439H1003.9ZM901.761 129.439H899.611V131.588H901.761V129.439ZM905.398 178.536H903.248V180.686H905.398V178.536ZM1020.87 178.536H1023.02V176.387H1020.87V178.536ZM1020.87 217.935V220.085H1023.02V217.935H1020.87ZM856.604 217.935H854.454V220.085H856.604V217.935ZM856.604 5.78655V3.63702H854.454V5.78655H856.604ZM1016.93 5.78655H1019.08V3.63702H1016.93V5.78655ZM1016.93 45.1856V47.3351H1019.08V45.1856H1016.93ZM905.398 45.1856V43.036H903.248V45.1856H905.398ZM901.761 91.2521V93.4016H1003.9V91.2521V89.1026H901.761V91.2521ZM1003.9 91.2521H1001.75V129.439H1003.9H1006.04V91.2521H1003.9ZM1003.9 129.439V127.289H901.761V129.439V131.588H1003.9V129.439ZM901.761 129.439H903.91V91.2521H901.761H899.611V129.439H901.761ZM905.398 178.536V180.686H1020.87V178.536V176.387H905.398V178.536ZM1020.87 178.536H1018.72V217.935H1020.87H1023.02V178.536H1020.87ZM1020.87 217.935V215.786H856.604V217.935V220.085H1020.87V217.935ZM856.604 217.935H858.753V5.78655H856.604H854.454V217.935H856.604ZM856.604 5.78655V7.93608H1016.93V5.78655V3.63702H856.604V5.78655ZM1016.93 5.78655H1014.78V45.1856H1016.93H1019.08V5.78655H1016.93ZM1016.93 45.1856V43.036H905.398V45.1856V47.3351H1016.93V45.1856ZM905.398 45.1856H903.248V178.536H905.398H907.547V45.1856H905.398Z" fill="#D3C7B9" fill-opacity="0.4" mask="url(#path-1-outside-1_32_32)"/>
</svg>
