<svg width="23" height="23" viewBox="0 0 23 23" fill="none" xmlns="http://www.w3.org/2000/svg">
<path d="M1.60002 7.90012H21.2M1.60002 14.9001H21.2M0.900024 11.4001C0.900024 12.779 1.17161 14.1444 1.69929 15.4183C2.22696 16.6922 3.00039 17.8497 3.9754 18.8247C4.95042 19.7998 6.10793 20.5732 7.38185 21.1009C8.65577 21.6285 10.0211 21.9001 11.4 21.9001C12.7789 21.9001 14.1443 21.6285 15.4182 21.1009C16.6921 20.5732 17.8496 19.7998 18.8246 18.8247C19.7997 17.8497 20.5731 16.6922 21.1008 15.4183C21.6284 14.1444 21.9 12.779 21.9 11.4001C21.9 8.61534 20.7938 5.94463 18.8246 3.97549C16.8555 2.00636 14.1848 0.900116 11.4 0.900116C8.61525 0.900116 5.94453 2.00636 3.9754 3.97549C2.00627 5.94463 0.900024 8.61534 0.900024 11.4001Z" stroke="white" stroke-width="1.8" stroke-linecap="round" stroke-linejoin="round"/>
<path d="M10.8168 0.900116C8.85132 4.04966 7.80933 7.68763 7.80933 11.4001C7.80933 15.1126 8.85132 18.7506 10.8168 21.9001M11.9834 0.900116C13.9489 4.04966 14.9908 7.68763 14.9908 11.4001C14.9908 15.1126 13.9489 18.7506 11.9834 21.9001" stroke="white" stroke-width="1.8" stroke-linecap="round" stroke-linejoin="round"/>
</svg>
